<svg width="100" height="23" viewBox="0 0 100 23" fill="none" xmlns="http://www.w3.org/2000/svg">
<path d="M14.8059 0C17.0138 0 18.6264 0.400452 19.6438 1.20136C20.8127 2.15378 21.3971 3.79888 21.3971 6.13665C21.3971 8.49607 20.8127 10.152 19.6438 11.1044C18.6264 11.9053 17.0138 12.3058 14.8059 12.3058H2.50012V22.079H0V0H14.8059ZM2.50012 9.93553H14.8059C15.8016 9.93553 16.5376 9.87059 17.0138 9.74072C17.6632 9.5459 18.1286 9.18874 18.41 8.66924C18.7346 8.10644 18.897 7.26225 18.897 6.13665C18.897 5.0327 18.7346 4.18851 18.41 3.60407C18.1286 3.10621 17.6632 2.75987 17.0138 2.56506C16.5376 2.43518 15.8016 2.37024 14.8059 2.37024H2.50012V9.93553Z" fill="white"/>
<path d="M32.5705 0L43.058 22.079H40.2982L30.7523 1.46111L21.2064 22.079H18.4465L28.934 0H32.5705Z" fill="white"/>
<path d="M41.9434 0L51.4893 20.6179L61.0352 0H63.7951L53.3076 22.079H49.6711L39.1836 0H41.9434Z" fill="white"/>
<path d="M59.4185 21.3929V22.079H58.6181V21.3929H59.4185Z" fill="white"/>
<path d="M66.7071 15.0109V15.7697H62.3624C62.0436 15.7697 61.808 15.7905 61.6556 15.8321C61.4546 15.8944 61.3057 16.0053 61.2086 16.1647C61.1047 16.3518 61.0527 16.622 61.0527 16.9754V20.1041C61.0527 20.4644 61.1047 20.7346 61.2086 20.9148C61.3057 21.0811 61.4546 21.192 61.6556 21.2474C61.808 21.2959 62.0436 21.3202 62.3624 21.3202H66.7071V18.9503H63.2979V18.1915H67.5075V22.079H62.3104C61.6175 22.072 61.1151 21.9369 60.8033 21.6736C60.436 21.3687 60.2524 20.8455 60.2524 20.1041V16.9754C60.2524 16.2271 60.4395 15.7039 60.8137 15.4059C61.1324 15.1426 61.6452 15.0109 62.352 15.0109H66.7071Z" fill="white"/>
<path d="M73.4263 15.0109C74.1331 15.0109 74.6494 15.1391 74.975 15.3955C75.3492 15.7004 75.5363 16.2271 75.5363 16.9754C75.5363 17.4605 75.4601 17.8243 75.3076 18.0668C75.1691 18.2886 74.9508 18.441 74.6528 18.5242C74.9508 18.6142 75.1691 18.7736 75.3076 19.0023C75.4601 19.2587 75.5363 19.6259 75.5363 20.1041V21.2059C75.5433 21.6285 75.5606 21.9196 75.5883 22.079H74.8087C74.7602 22.079 74.736 21.8711 74.736 21.4553V20.1041C74.736 19.7507 74.684 19.4804 74.5801 19.2933C74.483 19.127 74.3341 19.0162 74.1331 18.9607C73.9807 18.9191 73.7451 18.8983 73.4263 18.8983H69.092V22.079H68.2916V15.0109H73.4263ZM69.092 18.1292H73.4263C73.7589 18.1292 73.9945 18.1119 74.1331 18.0772C74.341 18.0287 74.49 17.9282 74.5801 17.7758C74.684 17.6025 74.736 17.3358 74.736 16.9754C74.736 16.622 74.684 16.3518 74.5801 16.1647C74.483 16.0053 74.3341 15.8944 74.1331 15.8321C73.9807 15.7905 73.7451 15.7697 73.4263 15.7697H69.092V18.1292Z" fill="white"/>
<path d="M81.7984 15.0109C82.5052 15.0109 83.0214 15.1391 83.3471 15.3955C83.7213 15.7004 83.9084 16.2271 83.9084 16.9754V20.1041C83.9084 20.8594 83.7213 21.386 83.3471 21.684C83.0214 21.9473 82.5052 22.079 81.7984 22.079H78.3787C77.6858 22.072 77.1834 21.9369 76.8716 21.6736C76.5043 21.3687 76.3207 20.8455 76.3207 20.1041V16.9754C76.3207 16.2271 76.5078 15.7039 76.882 15.4059C77.2007 15.1426 77.7135 15.0109 78.4203 15.0109H81.7984ZM78.4307 15.7697C78.1119 15.7697 77.8763 15.7905 77.7239 15.8321C77.5229 15.8944 77.3739 16.0053 77.2769 16.1647C77.173 16.3518 77.121 16.622 77.121 16.9754V20.1041C77.121 20.4644 77.173 20.7346 77.2769 20.9148C77.3739 21.0811 77.5229 21.192 77.7239 21.2474C77.8763 21.2959 78.1119 21.3202 78.4307 21.3202H81.7984C82.1171 21.3202 82.3527 21.2959 82.5052 21.2474C82.7061 21.192 82.8551 21.0811 82.9521 20.9148C83.0561 20.7346 83.108 20.4644 83.108 20.1041V16.9754C83.108 16.622 83.0561 16.3518 82.9521 16.1647C82.8551 16.0053 82.7061 15.8944 82.5052 15.8321C82.3527 15.7905 82.1171 15.7697 81.7984 15.7697H78.4307Z" fill="white"/>
<path d="M85.5358 15.0109V20.1041C85.5358 20.4644 85.5878 20.7346 85.6917 20.9148C85.7887 21.0811 85.9377 21.192 86.1387 21.2474C86.2911 21.2959 86.5267 21.3202 86.8455 21.3202H90.2132C90.5319 21.3202 90.7675 21.2959 90.92 21.2474C91.1209 21.192 91.2699 21.0811 91.3669 20.9148C91.4709 20.7346 91.5228 20.4644 91.5228 20.1041V15.0109H92.3232V20.1041C92.3232 20.8594 92.1361 21.386 91.7619 21.684C91.4362 21.9473 90.92 22.079 90.2132 22.079H86.7935C86.1006 22.072 85.5982 21.9369 85.2864 21.6736C84.9191 21.3687 84.7355 20.8455 84.7355 20.1041V15.0109H85.5358Z" fill="white"/>
<path d="M97.89 15.0109C98.5968 15.0109 99.113 15.1391 99.4387 15.3955C99.8129 15.7004 100 16.2271 100 16.9754C100 17.7307 99.8129 18.2608 99.4387 18.5657C99.113 18.8221 98.5968 18.9503 97.89 18.9503H93.9506V22.079H93.1503V15.0109H97.89ZM93.9506 18.1915H97.89C98.2087 18.1915 98.4443 18.1708 98.5968 18.1292C98.8047 18.0668 98.9537 17.9525 99.0437 17.7862C99.1477 17.606 99.1996 17.3358 99.1996 16.9754C99.1996 16.622 99.1477 16.3518 99.0437 16.1647C98.9537 16.0053 98.8047 15.8944 98.5968 15.8321C98.4443 15.7905 98.2087 15.7697 97.89 15.7697H93.9506V18.1915Z" fill="white"/>
<path d="M66.1227 0.539325V0.0265198H69.0374V0.539325H66.1227ZM67.3027 3.95944V0.314708H67.8657V3.95944H67.3027ZM69.7796 3.95944V0.0307579H70.3425V3.95944H69.7796ZM71.5601 3.95944L69.8797 0.0307579H70.4676L71.7394 3.11183L73.0154 0.0307579H73.5992L71.9187 3.95944H71.5601ZM73.1447 3.95944V0.0307579H73.7076V3.95944H73.1447Z" fill="white"/>
</svg>
