<svg width="362" height="126" viewBox="0 0 362 126" fill="none" xmlns="http://www.w3.org/2000/svg">
<path d="M83.9494 0C96.4682 0 105.612 2.27056 111.38 6.81168C118.008 12.2119 121.322 21.5396 121.322 34.7948C121.322 48.1727 118.008 57.5618 111.38 62.962C105.612 67.5032 96.4682 69.7737 83.9494 69.7737H14.1757V125.188H0V0H83.9494ZM14.1757 56.3345H83.9494C89.5951 56.3345 93.768 55.9663 96.4682 55.2299C100.15 54.1253 102.789 52.1002 104.384 49.1546C106.225 45.9635 107.146 41.1769 107.146 34.7948C107.146 28.5354 106.225 23.7488 104.384 20.435C102.789 17.6122 100.15 15.6485 96.4682 14.5439C93.768 13.8075 89.5951 13.4393 83.9494 13.4393H14.1757V56.3345Z" fill="black"/>
<path d="M184.675 0L244.139 125.188H228.491L174.365 8.28447L120.24 125.188H104.592L164.056 0H184.675Z" fill="black"/>
<path d="M237.819 0L291.944 116.903L346.07 0H361.718L302.254 125.188H281.635L222.171 0H237.819Z" fill="black"/>
</svg>
